Normalized EMG Linear Envelopes
nRows=124
nColumns=4

endheader
time	 med_gas_r	  soleus_r	 tib_ant_r	
2.57661	  0.002263	  0.005107	  0.001484	
2.64819	  0.002600	  0.004603	  0.001443	
2.71976	  0.002787	  0.004248	  0.001417	
2.79133	  0.002783	  0.004123	  0.001429	
2.8629	  0.002655	  0.004193	  0.001479	
2.93448	  0.002511	  0.004361	  0.001538	
3.00605	  0.002450	  0.004592	  0.001583	
3.07762	  0.002494	  0.004891	  0.001602	
3.14919	  0.002582	  0.005198	  0.001592	
3.22077	  0.002675	  0.005417	  0.001556	
3.29234	  0.002810	  0.005519	  0.001508	
3.36391	  0.002979	  0.005522	  0.001461	
3.43548	  0.003077	  0.005409	  0.001428	
3.50706	  0.003042	  0.005158	  0.001416	
3.57863	  0.002914	  0.004874	  0.001420	
3.6502	  0.002753	  0.004720	  0.001439	
3.72177	  0.002626	  0.004715	  0.001471	
3.79335	  0.002608	  0.004742	  0.001503	
3.86492	  0.002722	  0.004717	  0.001519	
3.93649	  0.002892	  0.004646	  0.001527	
4.00806	  0.003004	  0.004580	  0.001538	
4.07964	  0.003021	  0.004562	  0.001556	
4.15121	  0.003003	  0.004566	  0.001572	
4.22278	  0.002976	  0.004541	  0.001575	
4.29435	  0.002902	  0.004502	  0.001565	
4.36593	  0.002797	  0.004514	  0.001552	
4.4375	  0.002744	  0.004688	  0.001560	
4.50907	  0.002808	  0.005196	  0.001605	
4.58065	  0.003007	  0.006068	  0.001677	
4.65222	  0.003273	  0.006872	  0.001734	
4.72379	  0.003371	  0.006477	  0.001711	
4.79536	  0.002878	  0.003054	  0.001509	
4.86694	  0.001289	 -0.004988	  0.001047	
4.93851	 -0.001405	 -0.015729	  0.000454	
5.01008	 -0.003324	 -0.018163	  0.000377	
5.08165	  0.000815	  0.012014	  0.002205	
5.15323	  0.019265	  0.104356	  0.007549	
5.2248	  0.056390	  0.259225	  0.016182	
5.29637	  0.103124	  0.417212	  0.024404	
5.36794	  0.144251	  0.499641	  0.027904	
5.43952	  0.176620	  0.487291	  0.026394	
5.51109	  0.204204	  0.425761	  0.022990	
5.58266	  0.222079	  0.367467	  0.020085	
5.65423	  0.223461	  0.340601	  0.018151	
5.72581	  0.213190	  0.349709	  0.017303	
5.79738	  0.203985	  0.378396	  0.017834	
5.86895	  0.204854	  0.402114	  0.019410	
5.94052	  0.216012	  0.406676	  0.021102	
6.0121	  0.232765	  0.394105	  0.022216	
6.08367	  0.250294	  0.376678	  0.022529	
6.15524	  0.264719	  0.364737	  0.022183	
6.22681	  0.275100	  0.358186	  0.021835	
6.29839	  0.286501	  0.354461	  0.022392	
6.36996	  0.307474	  0.359712	  0.024055	
6.44153	  0.338481	  0.379291	  0.025955	
6.5131	  0.364711	  0.401017	  0.026990	
6.58468	  0.371593	  0.406113	  0.026803	
6.65625	  0.363676	  0.394265	  0.025910	
6.72782	  0.355864	  0.379518	  0.025069	
6.7994	  0.355176	  0.367620	  0.024686	
6.87097	  0.361366	  0.354146	  0.024788	
6.94254	  0.372983	  0.339177	  0.025181	
7.01411	  0.383769	  0.330915	  0.025511	
7.08569	  0.384768	  0.337769	  0.025555	
7.15726	  0.377278	  0.362797	  0.025700	
7.22883	  0.374359	  0.398846	  0.026862	
7.3004	  0.386284	  0.428542	  0.029553	
7.37198	  0.409370	  0.440156	  0.032970	
7.44355	  0.428178	  0.439857	  0.035303	
7.51512	  0.430746	  0.439716	  0.035307	
7.58669	  0.423223	  0.442163	  0.033459	
7.65827	  0.422474	  0.442059	  0.031459	
7.72984	  0.436485	  0.436482	  0.030936	
7.80141	  0.457350	  0.427721	  0.032232	
7.87298	  0.467249	  0.416493	  0.034008	
7.94456	  0.454846	  0.398753	  0.034587	
8.01613	  0.430525	  0.376302	  0.033628	
8.0877	  0.412784	  0.357873	  0.031738	
8.15927	  0.403477	  0.344195	  0.029380	
8.23085	  0.391581	  0.331366	  0.027193	
8.30242	  0.371939	  0.324952	  0.025980	
8.37399	  0.350922	  0.329190	  0.025767	
8.44556	  0.337436	  0.334073	  0.026072	
8.51714	  0.330939	  0.328733	  0.026686	
8.58871	  0.323431	  0.314640	  0.027335	
8.66028	  0.312186	  0.298701	  0.027510	
8.73185	  0.303519	  0.284590	  0.026957	
8.80343	  0.306272	  0.275216	  0.025844	
8.875	  0.324498	  0.274662	  0.024785	
8.94657	  0.351385	  0.283579	  0.024514	
9.01815	  0.368230	  0.299636	  0.024935	
9.08972	  0.359309	  0.320492	  0.025112	
9.16129	  0.331851	  0.339198	  0.024562	
9.23286	  0.309788	  0.346224	  0.023790	
9.30444	  0.308114	  0.342376	  0.023304	
9.37601	  0.323033	  0.338438	  0.023149	
9.44758	  0.342384	  0.341659	  0.023752	
9.51915	  0.359809	  0.352901	  0.025971	
9.59073	  0.380445	  0.371816	  0.029639	
9.6623	  0.412477	  0.395277	  0.033103	
9.73387	  0.455558	  0.417652	  0.034930	
9.80544	  0.502546	  0.436926	  0.035487	
9.87702	  0.545171	  0.450017	  0.035836	
9.94859	  0.569647	  0.447673	  0.035757	
10.0202	  0.559960	  0.428664	  0.034472	
10.0917	  0.516571	  0.407523	  0.032602	
10.1633	  0.459669	  0.396971	  0.031467	
10.2349	  0.409476	  0.394855	  0.031082	
10.3065	  0.373291	  0.391484	  0.030225	
10.378	  0.343479	  0.373540	  0.028031	
10.4496	  0.299057	  0.323265	  0.024834	
10.5212	  0.225193	  0.237917	  0.021612	
10.5927	  0.135087	  0.144171	  0.018780	
10.6643	  0.058697	  0.072566	  0.015822	
10.7359	  0.013869	  0.030914	  0.012147	
10.8075	 -0.002670	  0.011114	  0.007976	
10.879	 -0.003921	  0.003793	  0.004332	
10.9506	 -0.000666	  0.002385	  0.002107	
11.0222	  0.002115	  0.003057	  0.001298	
11.0937	  0.003397	  0.004048	  0.001301	
11.1653	  0.003645	  0.004734	  0.001539	
11.2369	  0.003442	  0.005038	  0.001697	
11.3085	  0.003055	  0.005112	  0.001690	
11.38	  0.002598	  0.005127	  0.001570	
